<?xml version="1.0" encoding="utf-8"?>
<!-- Generator: Adobe Illustrator 15.0.2, SVG Export Plug-In  -->
<!DOCTYPE svg PUBLIC "-//W3C//DTD SVG 1.1//EN" "http://www.w3.org/Graphics/SVG/1.1/DTD/svg11.dtd" [
	<!ENTITY ns_flows "http://ns.adobe.com/Flows/1.0/">
]>
<svg version="1.1"
	 xmlns="http://www.w3.org/2000/svg" xmlns:xlink="http://www.w3.org/1999/xlink" xmlns:a="http://ns.adobe.com/AdobeSVGViewerExtensions/3.0/"
	 x="0px" y="0px" width="394px" height="80px" viewBox="-0.403 0 394 80"
	 overflow="visible" enable-background="new -0.403 0 394 80" xml:space="preserve">
<defs>
</defs>
<path fill-rule="evenodd" clip-rule="evenodd" fill="#FFFFFF" d="M25.97,15.94c1.54-1.478,2.41-1.49,4.554-1.478
	c1.481,0.009,2.755,0.598,3.94,1.17c6.872,3.316,13.644,6.705,20.556,10.033c1.152,0.554,2.597,1.084,3.323,1.723
	c0.814,0.714,1.443,2.437,0.924,3.815c-0.381,1.014-1.849,2.104-3.509,1.785c-1.56-0.299-3.271-1.205-4.861-1.846
	c-4.573-1.846-9.922-3.914-14.342-5.663c-3.204,3.671-6.539,7.208-9.724,10.894c2.479,1.321,5.315,2.848,7.939,4.248
	c1.412,0.753,2.994,1.303,3.754,2.646c0.341,0.602,0.589,1.438,0.862,2.154c1.362,3.578,2.715,7.34,4.062,10.895
	c0.548,1.449,1.22,2.895,1.6,4.369c0.614,2.372-1.367,4.548-2.955,4.924c-2.074,0.488-3.868-0.714-4.616-1.907
	c-0.659-1.053-1.061-2.535-1.539-3.817c-1.415-3.794-2.911-7.869-4.307-11.633c-4.664-1.65-9.925-3.313-14.773-4.984
	c-0.721-0.25-1.483-0.34-2.154-0.616c-0.968-0.397-1.965-1.188-2.585-1.907c-1.43-1.656-2.699-5.335-1.107-8.063L25.97,15.94z"/>
<path fill-rule="evenodd" clip-rule="evenodd" fill="#FFFFFF" d="M62.59,37.051c5.194-0.361,9.459,1.834,12.064,4.31
	c2.624,2.488,5.086,6.196,5.292,11.076c0.228,5.392-1.704,9.221-4.308,12.063c-2.585,2.825-6.301,4.924-11.08,5.231
	c-5.013,0.324-9.206-1.678-12-4.244c-2.831-2.603-5.075-6.163-5.355-11.02c-0.315-5.444,1.698-9.362,4.248-12.124
	c1.287-1.395,2.738-2.52,4.678-3.508C57.958,37.904,60.109,37.223,62.59,37.051z M54.467,45.174
	c-1.856,2.055-3.479,5.043-3.201,9.111c0.24,3.53,1.906,6.335,4.062,8.246c2.144,1.901,5.307,3.429,9.048,3.138
	c3.559-0.274,6.231-1.803,8.247-3.999c1.958-2.139,3.489-4.956,3.261-9.048c-0.2-3.626-1.946-6.454-4-8.31
	c-2.025-1.828-5.226-3.504-9.108-3.201C58.947,41.412,56.363,43.08,54.467,45.174z"/>
<path fill-rule="evenodd" clip-rule="evenodd" fill="#FFFFFF" d="M15.138,47.33c5.263-0.413,9.525,1.7,12.248,4.123
	c2.737,2.436,5.049,6.287,5.354,11.017c0.347,5.357-1.641,9.205-4.185,12.063c-2.587,2.907-5.983,5.033-10.894,5.416
	c-4.994,0.389-9.361-1.49-12.187-4.062c-2.89-2.633-5.017-6.134-5.416-10.957c-0.434-5.229,1.603-9.486,4.062-12.187
	C6.531,50.098,10.31,47.706,15.138,47.33z M4.921,59.209c-0.957,2.415-1.046,5.402-0.37,7.753c1.323,4.593,4.778,7.799,9.478,8.74
	c2.697,0.541,5.246,0.115,7.632-0.984c3.7-1.703,7.104-5.564,7.078-11.14c-0.009-1.955-0.426-3.594-1.168-5.171
	c-1.882-3.992-6.064-7.519-12.188-7.016C10.054,51.828,6.474,55.281,4.921,59.209z"/>
<path fill-rule="evenodd" clip-rule="evenodd" fill="#FFFFFF" d="M63.33,51.392c1.777-0.202,3.172,1.933,1.785,3.446
	c-0.697,0.76-2.334,0.811-3.078,0C60.825,53.516,61.779,51.567,63.33,51.392z"/>
<path fill-rule="evenodd" clip-rule="evenodd" fill="#FFFFFF" d="M15.938,61.67c2.953-0.541,3.219,3.592,0.922,3.999
	C14.109,66.16,13.417,62.131,15.938,61.67z"/>
<circle fill-rule="evenodd" clip-rule="evenodd" fill="#FFFFFF" cx="42.989" cy="8.122" r="8.122"/>
<path fill="#FFFFFF" d="M86.863,64.477V15.523h18.009c3.382,0,6.26,0.315,8.634,0.942c2.374,0.628,4.311,1.512,5.813,2.654
	c1.499,1.142,2.59,2.531,3.275,4.165c0.682,1.637,1.023,3.461,1.023,5.477c0,1.098-0.155,2.158-0.469,3.175
	c-0.314,1.02-0.806,1.978-1.478,2.874c-0.673,0.896-1.536,1.706-2.588,2.436c-1.052,0.728-2.316,1.36-3.796,1.896
	c3.226,0.786,5.61,2.057,7.156,3.814c1.546,1.758,2.319,4.017,2.319,6.771c0,2.083-0.403,4.02-1.21,5.811
	c-0.806,1.792-1.987,3.355-3.544,4.689c-1.557,1.331-3.477,2.371-5.762,3.123c-2.283,0.75-4.894,1.126-7.827,1.126H86.863z
	 M98.22,36.121h5.912c1.255,0,2.386-0.09,3.394-0.269c1.008-0.18,1.864-0.494,2.57-0.941c0.707-0.45,1.244-1.063,1.613-1.848
	c0.369-0.784,0.554-1.769,0.554-2.957c0-1.165-0.147-2.134-0.437-2.907c-0.292-0.772-0.74-1.393-1.345-1.864
	c-0.604-0.47-1.371-0.805-2.301-1.008c-0.927-0.201-2.033-0.302-3.308-0.302H98.22V36.121z M98.22,43.714v12.195h7.996
	c1.5,0,2.726-0.191,3.678-0.572c0.953-0.38,1.696-0.873,2.234-1.478s0.908-1.286,1.109-2.049c0.202-0.762,0.303-1.535,0.303-2.319
	c0-0.896-0.117-1.7-0.353-2.42c-0.235-0.715-0.639-1.32-1.208-1.812c-0.571-0.494-1.328-0.876-2.269-1.143
	c-0.941-0.27-2.129-0.403-3.562-0.403H98.22z"/>
<path fill="#FFFFFF" d="M141.022,64.477h-9.793V22.52h9.793V64.477z"/>
<path fill="#FFFFFF" d="M158.531,39.509h1.554c1.441,0,2.477-0.451,3.111-1.353l9.444-13.709c0.519-0.75,1.11-1.258,1.771-1.527
	c0.663-0.268,1.476-0.4,2.436-0.4h8.465L172.872,39.48c-0.441,0.613-0.901,1.121-1.383,1.526c-0.479,0.402-0.969,0.738-1.469,1.008
	c0.729,0.269,1.398,0.639,2.003,1.108c0.604,0.471,1.156,1.099,1.655,1.887l12.671,19.467h-8.696c-0.559,0-1.033-0.038-1.426-0.115
	c-0.394-0.076-0.733-0.191-1.022-0.345c-0.288-0.154-0.539-0.343-0.749-0.562c-0.211-0.221-0.413-0.476-0.605-0.764l-9.503-14.601
	c-0.347-0.535-0.783-0.917-1.312-1.136c-0.526-0.222-1.242-0.33-2.144-0.33h-2.361v17.853h-9.734V22.52h9.734V39.509z"/>
<path fill="#FFFFFF" d="M216.932,22.52v7.485h-17.22v9.791h13.188v7.2h-13.188v9.992h17.22v7.488H189.92V22.52H216.932z"/>
<path fill="#FFFFFF" d="M250.319,25.47c-0.336,0.537-0.689,0.94-1.059,1.209c-0.368,0.27-0.845,0.404-1.428,0.404
	c-0.517,0-1.068-0.164-1.663-0.487c-0.596-0.326-1.264-0.689-2.018-1.093c-0.749-0.404-1.605-0.768-2.568-1.091
	c-0.962-0.325-2.062-0.488-3.292-0.488c-2.128,0-3.714,0.454-4.756,1.361c-1.04,0.906-1.561,2.133-1.561,3.679
	c0,0.985,0.31,1.804,0.939,2.454c0.627,0.647,1.451,1.209,2.471,1.678c1.021,0.471,2.185,0.903,3.493,1.293
	c1.311,0.393,2.648,0.83,4.017,1.312c1.365,0.482,2.705,1.047,4.013,1.697c1.311,0.649,2.476,1.478,3.494,2.485
	c1.021,1.007,1.844,2.234,2.47,3.68c0.626,1.446,0.94,3.185,0.94,5.225c0,2.262-0.391,4.378-1.177,6.35
	c-0.783,1.969-1.919,3.69-3.409,5.155c-1.488,1.467-3.326,2.623-5.51,3.461c-2.185,0.84-4.663,1.26-7.44,1.26
	c-1.523,0-3.076-0.156-4.655-0.469c-1.578-0.314-3.106-0.758-4.586-1.328c-1.477-0.569-2.866-1.247-4.162-2.033
	c-1.305-0.783-2.433-1.656-3.395-2.619l3.356-5.309c0.248-0.405,0.594-0.728,1.042-0.977c0.448-0.244,0.93-0.367,1.445-0.367
	c0.672,0,1.351,0.213,2.032,0.638c0.684,0.427,1.458,0.896,2.318,1.412c0.861,0.517,1.852,0.983,2.975,1.411
	c1.117,0.425,2.439,0.638,3.963,0.638c2.062,0,3.664-0.454,4.804-1.362c1.145-0.906,1.714-2.345,1.714-4.315
	c0-1.143-0.313-2.072-0.939-2.79c-0.628-0.716-1.45-1.31-2.471-1.778c-1.02-0.473-2.176-0.886-3.477-1.245
	c-1.299-0.357-2.631-0.755-3.999-1.191c-1.366-0.437-2.696-0.975-3.999-1.612c-1.298-0.638-2.457-1.479-3.475-2.521
	s-1.846-2.34-2.471-3.896c-0.627-1.557-0.939-3.477-0.939-5.763c0-1.835,0.369-3.628,1.109-5.374
	c0.738-1.746,1.822-3.304,3.257-4.672c1.437-1.366,3.192-2.457,5.275-3.274c2.085-0.818,4.47-1.227,7.157-1.227
	c1.5,0,2.96,0.116,4.382,0.353c1.424,0.235,2.773,0.583,4.051,1.041c1.277,0.46,2.471,1.008,3.58,1.646
	c1.106,0.639,2.099,1.361,2.97,2.167L250.319,25.47z"/>
<path fill="#FFFFFF" d="M285.895,22.52v7.485h-17.224v9.791h13.19v7.2h-13.19v9.992h17.224v7.488h-27.013V22.52H285.895z"/>
<path fill="#FFFFFF" d="M297.612,22.575c0.288,0.04,0.549,0.11,0.779,0.216c0.231,0.105,0.449,0.255,0.662,0.447
	c0.211,0.19,0.45,0.45,0.721,0.778l19.928,25.196c-0.076-0.806-0.136-1.588-0.173-2.347c-0.039-0.757-0.059-1.472-0.059-2.146V22.52
	h8.582v41.957h-5.068c-0.748,0-1.383-0.115-1.901-0.346c-0.516-0.231-1.016-0.653-1.498-1.267l-19.784-24.998
	c0.06,0.731,0.104,1.447,0.146,2.147c0.037,0.7,0.055,1.357,0.055,1.971v22.492h-8.58V22.52h5.128
	C296.972,22.52,297.327,22.537,297.612,22.575z"/>
<path fill="#FFFFFF" d="M358.347,31.042c-0.285,0.459-0.589,0.805-0.906,1.036c-0.318,0.231-0.726,0.346-1.224,0.346
	c-0.44,0-0.917-0.139-1.426-0.416c-0.509-0.28-1.086-0.59-1.727-0.937c-0.645-0.345-1.379-0.658-2.202-0.937
	c-0.829-0.278-1.768-0.417-2.826-0.417c-1.822,0-3.181,0.389-4.072,1.164c-0.892,0.779-1.342,1.83-1.342,3.154
	c0,0.845,0.271,1.546,0.808,2.104c0.537,0.557,1.243,1.037,2.116,1.439c0.875,0.403,1.872,0.773,2.996,1.108
	c1.124,0.337,2.27,0.712,3.443,1.125c1.168,0.411,2.314,0.896,3.438,1.452c1.122,0.558,2.122,1.268,2.994,2.132
	c0.876,0.865,1.581,1.916,2.116,3.152c0.54,1.238,0.808,2.731,0.808,4.479c0,1.939-0.334,3.754-1.009,5.442
	c-0.671,1.689-1.645,3.164-2.922,4.422c-1.276,1.258-2.85,2.245-4.722,2.965c-1.872,0.721-3.999,1.081-6.381,1.081
	c-1.304,0-2.633-0.136-3.987-0.404c-1.354-0.267-2.663-0.648-3.931-1.137s-2.458-1.069-3.572-1.742
	c-1.111-0.673-2.082-1.42-2.907-2.244l2.88-4.552c0.211-0.346,0.508-0.625,0.893-0.836c0.384-0.211,0.797-0.316,1.238-0.316
	c0.576,0,1.156,0.183,1.744,0.548c0.581,0.364,1.245,0.767,1.984,1.209c0.739,0.441,1.59,0.845,2.55,1.209
	c0.957,0.365,2.092,0.546,3.398,0.546c1.768,0,3.138-0.388,4.116-1.164c0.98-0.778,1.47-2.012,1.47-3.702
	c0-0.979-0.27-1.773-0.806-2.389c-0.539-0.613-1.246-1.125-2.117-1.527c-0.874-0.403-1.866-0.758-2.979-1.064
	c-1.114-0.307-2.257-0.65-3.43-1.023c-1.17-0.374-2.312-0.833-3.426-1.382c-1.112-0.547-2.106-1.268-2.981-2.16
	c-0.871-0.892-1.579-2.005-2.117-3.34c-0.535-1.335-0.804-2.981-0.804-4.939c0-1.573,0.315-3.108,0.95-4.607
	c0.633-1.497,1.562-2.833,2.793-4.002c1.229-1.171,2.736-2.107,4.521-2.808c1.787-0.701,3.83-1.052,6.134-1.052
	c1.285,0,2.538,0.1,3.761,0.302c1.218,0.202,2.374,0.499,3.468,0.893s2.117,0.863,3.065,1.412c0.953,0.547,1.802,1.166,2.552,1.856
	L358.347,31.042z"/>
<path fill="#FFFFFF" d="M393.193,22.52v7.485h-17.222v9.791h13.188v7.2h-13.188v9.992h17.222v7.488h-27.012V22.52H393.193z"/>
</svg>
